<svg width="87" height="16" viewBox="0 0 87 16" fill="none" xmlns="http://www.w3.org/2000/svg">
<rect x="0.5" y="0.5" width="86" height="15" rx="7.5" fill="#1EDE00" fill-opacity="0.08"/>
<path d="M9.92 11.12C11.26 11.12 12.09 10.41 12.6 9.61L11.6 9.11C11.28 9.66 10.63 10.08 9.92 10.08C8.6 10.08 7.62 9.06 7.62 7.67C7.62 6.26 8.6 5.26 9.92 5.26C10.63 5.26 11.28 5.67 11.6 6.23L12.59 5.71C12.1 4.91 11.26 4.22 9.92 4.22C7.95 4.22 6.42 5.61 6.42 7.67C6.42 9.72 7.95 11.12 9.92 11.12ZM17.0464 11.12C19.0364 11.12 20.4564 9.66 20.4564 7.67C20.4564 5.68 19.0364 4.22 17.0464 4.22C15.0464 4.22 13.6364 5.68 13.6364 7.67C13.6364 9.66 15.0464 11.12 17.0464 11.12ZM17.0464 10.08C15.6964 10.08 14.8364 9.04 14.8364 7.67C14.8364 6.29 15.6964 5.26 17.0464 5.26C18.3864 5.26 19.2564 6.29 19.2564 7.67C19.2564 9.04 18.3864 10.08 17.0464 10.08ZM28.9029 11V4.33H27.2529L25.4429 8.91L23.6229 4.33H21.9729V11H23.1429V5.85L25.1929 11H25.6929L27.7329 5.85V11H28.9029ZM31.8925 11V4.33H30.7225V11H31.8925ZM39.4904 11V4.33H38.3204V8.95L34.9104 4.33H33.7104V11H34.8804V6.23L38.3604 11H39.4904ZM44.5177 11.13C45.6677 11.13 46.6077 10.64 47.2577 9.91V7.42H44.0977V8.45H46.0977V9.48C45.7977 9.77 45.1977 10.08 44.5177 10.08C43.1977 10.08 42.2177 9.06 42.2177 7.67C42.2177 6.26 43.1977 5.26 44.5177 5.26C45.2577 5.26 45.8877 5.65 46.2477 6.15L47.1977 5.6C46.6677 4.84 45.8177 4.22 44.5177 4.22C42.5777 4.22 41.0177 5.57 41.0177 7.67C41.0177 9.76 42.5777 11.13 44.5177 11.13ZM54.1437 11.12C55.9337 11.12 56.7237 10.16 56.7237 9.05C56.7237 6.57 52.8437 7.34 52.8437 6.09C52.8437 5.6 53.2837 5.26 53.9637 5.26C54.6637 5.26 55.3737 5.5 55.9037 6.03L56.5637 5.16C55.9537 4.56 55.1037 4.22 54.0737 4.22C52.6037 4.22 51.6437 5.07 51.6437 6.18C51.6437 8.63 55.5237 7.76 55.5237 9.16C55.5237 9.61 55.1537 10.08 54.1937 10.08C53.2637 10.08 52.5337 9.64 52.0837 9.15L51.4237 10.06C52.0237 10.68 52.9137 11.12 54.1437 11.12ZM61.3113 11.12C63.3013 11.12 64.7213 9.66 64.7213 7.67C64.7213 5.68 63.3013 4.22 61.3113 4.22C59.3113 4.22 57.9013 5.68 57.9013 7.67C57.9013 9.66 59.3113 11.12 61.3113 11.12ZM61.3113 10.08C59.9613 10.08 59.1013 9.04 59.1013 7.67C59.1013 6.29 59.9613 5.26 61.3113 5.26C62.6513 5.26 63.5213 6.29 63.5213 7.67C63.5213 9.04 62.6513 10.08 61.3113 10.08ZM69.3577 11.12C71.3477 11.12 72.7677 9.66 72.7677 7.67C72.7677 5.68 71.3477 4.22 69.3577 4.22C67.3577 4.22 65.9477 5.68 65.9477 7.67C65.9477 9.66 67.3577 11.12 69.3577 11.12ZM69.3577 10.08C68.0077 10.08 67.1477 9.04 67.1477 7.67C67.1477 6.29 68.0077 5.26 69.3577 5.26C70.6977 5.26 71.5677 6.29 71.5677 7.67C71.5677 9.04 70.6977 10.08 69.3577 10.08ZM80.0642 11V4.33H78.8942V8.95L75.4842 4.33H74.2842V11H75.4542V6.23L78.9342 11H80.0642Z" fill="#27AE60"/>
<rect x="0.5" y="0.5" width="86" height="15" rx="7.5" stroke="#27AE60"/>
</svg>
