<svg width="15" height="11" viewBox="0 0 15 11" fill="none" xmlns="http://www.w3.org/2000/svg">
<path fill-rule="evenodd" clip-rule="evenodd" d="M1.10982 5.50698C2.48625 7.47758 3.83199 8.64782 5.08994 9.266C6.37965 9.89978 7.60469 9.96731 8.72935 9.68748C10.9255 9.14104 12.782 7.25419 13.8922 5.53382C12.5365 3.54355 11.2035 2.36264 9.95321 1.73908C8.6723 1.10023 7.44931 1.03151 6.32163 1.31358C4.11889 1.86457 2.24031 3.76907 1.10982 5.50698ZM10.3797 0.684948C11.8713 1.4289 13.3772 2.81383 14.8501 5.02656C15.0297 5.29631 15.0619 5.68792 14.8696 5.9989C13.6985 7.89307 11.5911 10.1597 8.95693 10.8151C7.62607 11.1462 6.17264 11.0618 4.66872 10.3227C3.1711 9.58677 1.65152 8.21595 0.155358 6.02394C-0.029731 5.75277 -0.0639208 5.3551 0.132066 5.04079C1.32231 3.13196 3.45235 0.846739 6.0929 0.186239C7.42749 -0.147594 8.88154 -0.0622389 10.3797 0.684948Z" fill="black"/>
<path fill-rule="evenodd" clip-rule="evenodd" d="M7.5 7.73494C8.73432 7.73494 9.73494 6.73432 9.73494 5.5C9.73494 4.26568 8.73432 3.26506 7.5 3.26506C6.26568 3.26506 5.26506 4.26568 5.26506 5.5C5.26506 6.73432 6.26568 7.73494 7.5 7.73494ZM7.5 9C9.433 9 11 7.433 11 5.5C11 3.567 9.433 2 7.5 2C5.567 2 4 3.567 4 5.5C4 7.433 5.567 9 7.5 9Z" fill="black"/>
</svg>
