<svg width="17" height="15" viewBox="0 0 17 15" fill="none" xmlns="http://www.w3.org/2000/svg">
<path fill-rule="evenodd" clip-rule="evenodd" d="M1.10982 7.50698C2.48625 9.47758 3.83199 10.6478 5.08994 11.266C6.37965 11.8998 7.60469 11.9673 8.72935 11.6875C10.9255 11.141 12.782 9.25419 13.8922 7.53382C12.5365 5.54355 11.2035 4.36264 9.95321 3.73908C8.6723 3.10023 7.44931 3.03151 6.32163 3.31358C4.11889 3.86457 2.24031 5.76907 1.10982 7.50698ZM10.3797 2.68495C11.8713 3.4289 13.3772 4.81383 14.8501 7.02656C15.0297 7.29631 15.0619 7.68792 14.8696 7.9989C13.6985 9.89307 11.5911 12.1597 8.95693 12.8151C7.62607 13.1462 6.17264 13.0618 4.66872 12.3227C3.1711 11.5868 1.65152 10.216 0.155358 8.02394C-0.029731 7.75277 -0.0639208 7.3551 0.132066 7.04079C1.32231 5.13196 3.45235 2.84674 6.0929 2.18624C7.42749 1.85241 8.88154 1.93776 10.3797 2.68495Z" fill="black"/>
<path fill-rule="evenodd" clip-rule="evenodd" d="M7.5 9.73494C8.73432 9.73494 9.73494 8.73432 9.73494 7.5C9.73494 6.26568 8.73432 5.26506 7.5 5.26506C6.26568 5.26506 5.26506 6.26568 5.26506 7.5C5.26506 8.73432 6.26568 9.73494 7.5 9.73494ZM7.5 11C9.433 11 11 9.433 11 7.5C11 5.567 9.433 4 7.5 4C5.567 4 4 5.567 4 7.5C4 9.433 5.567 11 7.5 11Z" fill="black"/>
<line x1="2" y1="13.2929" x2="14.2929" y2="1" stroke="black" stroke-linecap="round"/>
<rect x="2.20032" y="13.778" width="17.9318" height="0.516359" transform="rotate(-44.9182 2.20032 13.778)" fill="white"/>
</svg>
